<?xml version="1.0" encoding="UTF-8" standalone="no"?>
<!DOCTYPE svg PUBLIC "-//W3C//DTD SVG 1.1//EN" "http://www.w3.org/Graphics/SVG/1.1/DTD/svg11.dtd">
<svg version="1.1" xmlns="http://www.w3.org/2000/svg" xmlns:xlink="http://www.w3.org/1999/xlink" preserveAspectRatio="xMidYMid meet" viewBox="0 0 640 640" width="1920" height="1920"><defs><path d="M273.39 304.73C281.2 296.91 293.87 296.91 301.68 304.73C315.71 318.76 343.67 346.72 357.71 360.75C365.52 368.56 365.52 381.23 357.71 389.04C343.67 403.07 315.71 431.03 301.68 445.07C293.87 452.88 281.2 452.88 273.39 445.07C259.36 431.03 231.4 403.07 217.36 389.04C209.55 381.23 209.55 368.56 217.36 360.75C231.4 346.72 259.36 318.76 273.39 304.73Z" id="bPdZY3OwT"></path><path d="M151 131.14C162.51 119.64 181.17 119.64 192.68 131.14C215.33 153.79 262.43 200.9 285.08 223.55C296.59 235.06 296.59 253.72 285.08 265.23C262.43 287.87 215.33 334.98 192.68 357.63C181.17 369.14 162.51 369.14 151 357.63C128.35 334.98 81.25 287.87 58.6 265.23C47.09 253.72 47.09 235.06 58.6 223.55C81.25 200.9 128.35 153.79 151 131.14Z" id="akQydQdww"></path><path d="M213.39 -23.73C217.35 -27.69 223.76 -27.69 227.72 -23.73C261.58 10.13 356 104.55 389.87 138.41C393.82 142.37 393.82 148.78 389.87 152.74C386.82 155.79 384.83 157.77 381.78 160.82C377.83 164.77 371.42 164.77 367.46 160.82C333.6 126.96 239.18 32.53 205.31 -1.33C201.36 -5.29 201.36 -11.7 205.31 -15.65C208.36 -18.7 210.35 -20.69 213.39 -23.73Z" id="a4PiQ8stE"></path><path d="M124.22 2.32C132.04 -5.49 144.7 -5.49 152.51 2.32C162.54 12.34 178.48 28.28 188.5 38.31C196.31 46.12 196.31 58.78 188.5 66.59C160.9 94.2 92.24 162.86 64.64 190.46C56.83 198.27 44.16 198.27 36.35 190.46C26.32 180.43 10.39 164.49 0.36 154.47C-7.45 146.66 -7.45 133.99 0.36 126.18C27.96 98.58 96.62 29.92 124.22 2.32Z" id="bKz7WMW4o"></path><path d="M197.34 78.99C205.15 71.18 217.82 71.18 225.63 78.99C232.94 86.3 240.73 94.09 248.04 101.4C255.85 109.21 255.85 121.88 248.04 129.69C240.73 137 232.94 144.79 225.63 152.1C217.82 159.91 205.15 159.91 197.34 152.1C190.03 144.79 182.24 137 174.93 129.69C167.12 121.88 167.12 109.21 174.93 101.4C182.24 94.09 190.03 86.3 197.34 78.99Z" id="e3guLnOKpD"></path><path d="M320.61 65.74C328.43 57.93 341.09 57.93 348.9 65.74C362.02 78.86 387.24 104.07 400.36 117.19C408.17 125 408.17 137.67 400.36 145.48C387.24 158.6 362.02 183.81 348.9 196.93C341.09 204.74 328.43 204.74 320.61 196.93C307.5 183.81 282.28 158.6 269.16 145.48C261.35 137.67 261.35 125 269.16 117.19C282.28 104.07 307.5 78.86 320.61 65.74Z" id="c1cwRshL8"></path><path d="M135.35 90.31C143.16 82.5 155.82 82.5 163.63 90.31C226.56 153.24 401.21 327.89 464.14 390.82C471.95 398.63 471.95 411.29 464.14 419.1C460.46 422.78 463.55 419.69 459.87 423.37C452.06 431.18 439.39 431.18 431.58 423.37C368.65 360.44 194.01 185.8 131.08 122.87C123.27 115.06 123.27 102.39 131.08 94.58C134.76 90.9 131.67 93.99 135.35 90.31Z" id="d1neffq5LY"></path><path d="M61.79 172.06C69.6 164.25 82.26 164.25 90.08 172.06C96.79 178.78 102.81 184.79 109.53 191.51C117.34 199.32 117.34 211.98 109.53 219.79C101.63 227.69 92.1 237.22 84.2 245.12C76.39 252.93 63.73 252.93 55.92 245.12C49.2 238.4 43.19 232.38 36.47 225.66C28.66 217.85 28.66 205.19 36.47 197.38C44.36 189.49 53.9 179.95 61.79 172.06Z" id="bH9S84Jb5"></path><path d="M65.2 433.19C70.48 427.91 79.04 427.91 84.32 433.19C102.94 451.81 149.26 498.13 167.88 516.75C173.16 522.03 173.16 530.59 167.88 535.87C165.97 537.78 169.79 533.95 167.88 535.87C162.6 541.15 154.04 541.15 148.76 535.87C130.14 517.24 83.83 470.93 65.2 452.31C59.92 447.03 59.92 438.47 65.2 433.19C67.11 431.28 63.29 435.1 65.2 433.19Z" id="a6Dymg9tcn"></path><path d="M438.32 239.36C446.13 247.17 446.13 259.83 438.32 267.64C416.94 289.02 366.94 339.02 345.56 360.4C337.75 368.21 325.09 368.21 317.28 360.4C297.23 340.36 251.24 294.37 231.2 274.32C223.38 266.51 223.38 253.85 231.2 246.04C252.58 224.66 302.57 174.66 323.95 153.28C331.76 145.47 344.43 145.47 352.24 153.28C372.28 173.32 418.27 219.31 438.32 239.36Z" id="e2lcyhcYXr"></path><path d="M171.9 471.03C179.71 463.22 192.37 463.22 200.18 471.03C207.87 478.72 216.8 487.65 224.49 495.34C232.3 503.15 232.3 515.81 224.49 523.62C216.8 531.31 207.87 540.24 200.18 547.93C192.37 555.74 179.71 555.74 171.9 547.93C164.21 540.24 155.28 531.31 147.59 523.62C139.78 515.81 139.78 503.15 147.59 495.34C155.28 487.65 164.21 478.72 171.9 471.03Z" id="a3FlP97VMU"></path><path d="M132.01 272.62C139.82 264.81 152.48 264.81 160.29 272.62C185.18 297.5 245.69 358.02 270.58 382.9C278.39 390.72 278.39 403.38 270.58 411.19C251.25 430.52 207.4 474.37 188.06 493.7C180.25 501.51 167.59 501.51 159.78 493.7C134.89 468.82 74.38 408.3 49.49 383.41C41.68 375.6 41.68 362.94 49.49 355.13C68.82 335.8 112.67 291.95 132.01 272.62Z" id="a7pwPoaBn"></path><path d="M11.31 265.22C19.12 257.41 31.78 257.41 39.59 265.22C53.96 279.59 82.92 308.55 97.29 322.92C105.1 330.73 105.1 343.39 97.29 351.2C82.92 365.57 53.96 394.53 39.59 408.9C31.78 416.71 19.12 416.71 11.31 408.9C-3.06 394.53 -32.02 365.57 -46.39 351.2C-54.2 343.39 -54.2 330.73 -46.39 322.92C-32.02 308.55 -3.06 279.59 11.31 265.22Z" id="c5HinQn1iL"></path><path d="M107.3 -71.4C112.83 -76.93 121.8 -76.93 127.33 -71.4C177.84 -20.89 319.35 120.61 369.86 171.12C375.39 176.65 375.39 185.62 369.86 191.16C367.85 193.16 371.86 189.15 369.86 191.16C364.32 196.69 355.35 196.69 349.82 191.16C299.31 140.65 157.81 -0.86 107.3 -51.37C101.77 -56.9 101.77 -65.87 107.3 -71.4C109.3 -73.4 105.3 -69.4 107.3 -71.4Z" id="kj0C88jWG"></path><path d="M47.1 5.86C54.91 -1.95 67.58 -1.95 75.39 5.86C79.24 9.71 76.64 7.11 80.49 10.96C88.3 18.78 88.3 31.44 80.49 39.25C76.64 43.1 79.24 40.51 75.39 44.36C67.58 52.17 54.91 52.17 47.1 44.36C43.25 40.51 45.84 43.1 41.99 39.25C34.18 31.44 34.18 18.78 41.99 10.96C45.84 7.11 43.25 9.71 47.1 5.86Z" id="b1eYPFirl4"></path><path d="M-2.49 222C5.32 214.19 17.98 214.19 25.79 222C31.02 227.23 32.55 228.76 37.78 233.98C45.59 241.79 45.59 254.46 37.78 262.27C32.55 267.49 31.02 269.02 25.79 274.25C17.98 282.06 5.32 282.06 -2.49 274.25C-7.71 269.02 -9.25 267.49 -14.47 262.27C-22.28 254.46 -22.28 241.79 -14.47 233.98C-9.25 228.76 -7.71 227.23 -2.49 222Z" id="b9OqdlvTj"></path><path d="M-83.97 350.73C-76.16 342.92 -63.49 342.92 -55.68 350.73C-23.1 383.31 60.52 466.93 93.1 499.51C100.91 507.32 100.91 519.98 93.1 527.8C86.25 534.65 79.82 541.07 72.97 547.93C65.16 555.74 52.49 555.74 44.68 547.93C12.1 515.34 -71.51 431.73 -104.1 399.14C-111.91 391.33 -111.91 378.67 -104.1 370.86C-97.24 364.01 -90.82 357.58 -83.97 350.73Z" id="a2wujxraA7"></path></defs><g><g><g><use xlink:href="#bPdZY3OwT" opacity="1" fill="#00b7c5" fill-opacity="1"></use></g><g><use xlink:href="#akQydQdww" opacity="1" fill="#f0ecd3" fill-opacity="1"></use></g><g><use xlink:href="#a4PiQ8stE" opacity="1" fill="#1a4266" fill-opacity="1"></use></g><g><use xlink:href="#bKz7WMW4o" opacity="1" fill="#f43b62" fill-opacity="1"></use></g><g><use xlink:href="#e3guLnOKpD" opacity="1" fill="#f0ecd3" fill-opacity="1"></use></g><g><use xlink:href="#c1cwRshL8" opacity="1" fill="#00b7c5" fill-opacity="1"></use></g><g><use xlink:href="#d1neffq5LY" opacity="1" fill="#1a4266" fill-opacity="1"></use></g><g><use xlink:href="#bH9S84Jb5" opacity="1" fill="#1a4266" fill-opacity="1"></use></g><g><use xlink:href="#a6Dymg9tcn" opacity="1" fill="#00b7c5" fill-opacity="1"></use></g><g><use xlink:href="#e2lcyhcYXr" opacity="1" fill="#f43b62" fill-opacity="1"></use></g><g><use xlink:href="#a3FlP97VMU" opacity="1" fill="#1a4266" fill-opacity="1"></use></g><g><use xlink:href="#a7pwPoaBn" opacity="1" fill="#f43b62" fill-opacity="1"></use></g><g><use xlink:href="#c5HinQn1iL" opacity="1" fill="#1a4266" fill-opacity="1"></use></g><g><use xlink:href="#kj0C88jWG" opacity="1" fill="#f43b62" fill-opacity="1"></use></g><g><use xlink:href="#b1eYPFirl4" opacity="1" fill="#f0ecd3" fill-opacity="1"></use></g><g><use xlink:href="#b9OqdlvTj" opacity="1" fill="#f43b62" fill-opacity="1"></use></g><g><use xlink:href="#a2wujxraA7" opacity="1" fill="#f0ecd3" fill-opacity="1"></use></g></g></g></svg>