<?xml version="1.0" encoding="utf-8"?>
<!-- Generator: Adobe Illustrator 24.0.1, SVG Export Plug-In . SVG Version: 6.00 Build 0)  -->
<svg version="1.1" id="Layer_1" xmlns="http://www.w3.org/2000/svg" xmlns:xlink="http://www.w3.org/1999/xlink" x="0px" y="0px"
	 viewBox="0 0 24 24" style="enable-background:new 0 0 24 24;" xml:space="preserve">
<style type="text/css">
	.st0{fill:none;}
	.st1{fill:#FD304C;}
</style>
<g id="Bounding_Box">
	<rect y="0" class="st0" width="24" height="24"/>
</g>
<g id="Master">
	<g id="ui_x5F_spec_x5F_header_copy">
	</g>
	<path class="st1" d="M12,3c-0.5,0-0.9,0-1.4,0.1c-2.8,0.5-5,2.8-5.5,5.5c-0.5,2.6,0.5,5,2.2,6.6C7.8,15.6,8,16.1,8,16.7V19
		c0,1.1,0.9,2,2,2h0.3c0.4,0.6,1,1,1.7,1s1.4-0.4,1.7-1H14c1.1,0,2-0.9,2-2v-2.3c0-0.5,0.2-1.1,0.6-1.5c1.5-1.3,2.4-3.2,2.4-5.2
		C19,6.1,15.9,3,12,3z M14,19h-4v-1h4V19z M14,17h-4v-1h4V17z M12.5,11.4V14h-1v-2.6L9.7,9.6l0.7-0.7l1.6,1.6l1.6-1.6l0.7,0.7
		L12.5,11.4z"/>
</g>
</svg>
