<?xml version="1.0" encoding="utf-8"?>
<!-- Generator: Adobe Illustrator 24.0.1, SVG Export Plug-In . SVG Version: 6.00 Build 0)  -->
<svg version="1.1" id="Layer_1" xmlns="http://www.w3.org/2000/svg" xmlns:xlink="http://www.w3.org/1999/xlink" x="0px" y="0px"
	 viewBox="0 0 24 24" style="enable-background:new 0 0 24 24;" xml:space="preserve">
<style type="text/css">
	.st0{fill:none;}
	.st1{fill:#FD304C;}
</style>
<path class="st0" d="M0,0h24v24H0V0z M10,5h4v2h-4V5z M10,5h4v2h-4V5z"/>
<path class="st1" d="M10,16v-1H3l0,4c0,1.1,0.9,2,2,2h14c1.1,0,2-0.9,2-2v-4h-7v1H10z M20,7h-4V5l-2-2h-4L8,5v2H4C2.9,7,2,7.9,2,9v3
	c0,1.1,0.9,2,2,2h6v-2h4v2h6c1.1,0,2-0.9,2-2V9C22,7.9,21.1,7,20,7z M14,7h-4V5h4V7z"/>
</svg>
