<?xml version="1.0" encoding="utf-8"?>
<!-- Generator: Adobe Illustrator 24.0.1, SVG Export Plug-In . SVG Version: 6.00 Build 0)  -->
<svg version="1.1" id="Layer_1" xmlns="http://www.w3.org/2000/svg" xmlns:xlink="http://www.w3.org/1999/xlink" x="0px" y="0px"
	 viewBox="0 0 24 24" style="enable-background:new 0 0 24 24;" xml:space="preserve">
<style type="text/css">
	.st0{fill:none;}
	.st1{fill:#FD304C;}
</style>
<path class="st0" d="M0,0h24v24H0V0z"/>
<path class="st1" d="M19.1,4.9l-1.4,1.4C19.1,7.8,20,9.8,20,12c0,4.4-3.6,8-8,8s-8-3.6-8-8c0-4.1,3.1-7.4,7-7.9v2C8.2,6.6,6,9,6,12
	c0,3.3,2.7,6,6,6s6-2.7,6-6c0-1.7-0.7-3.2-1.8-4.2l-1.4,1.4C15.6,9.9,16,10.9,16,12c0,2.2-1.8,4-4,4s-4-1.8-4-4c0-1.9,1.3-3.4,3-3.9
	v2.1c-0.6,0.4-1,1-1,1.7c0,1.1,0.9,2,2,2s2-0.9,2-2c0-0.7-0.4-1.4-1-1.7V2h-1C6.5,2,2,6.5,2,12s4.5,10,10,10s10-4.5,10-10
	C22,9.2,20.9,6.7,19.1,4.9z"/>
</svg>
